<?xml version="1.0" encoding="UTF-8"?><svg xmlns="http://www.w3.org/2000/svg" width="24px" height="24px" fill="none" stroke-width="1.5" viewBox="0 0 24 24" color="#000000"><path stroke="#000000" stroke-width="1.5" stroke-linecap="round" stroke-linejoin="round" d="M12 22C6.477 22 2 17.523 2 12S6.477 2 12 2s10 4.477 10 10-4.477 10-10 10Z"></path><path stroke="#000000" stroke-width="1.5" stroke-linecap="round" stroke-linejoin="round" d="M12 16a4 4 0 1 1 0-8 4 4 0 0 1 0 8ZM12 2v6M12 16v6M2 12h6M16 12h6M4.929 4.929 9.172 9.17M14.828 14.829l4.243 4.242M4.929 19.071l4.243-4.242M14.828 9.171l4.243-4.242"></path></svg>